<?xml version="1.0" standalone="no"?>
<!DOCTYPE svg PUBLIC "-//W3C//DTD SVG 20010904//EN"
 "http://www.w3.org/TR/2001/REC-SVG-20010904/DTD/svg10.dtd">
<svg version="1.0" xmlns="http://www.w3.org/2000/svg"
 width="647.000000pt" height="425.000000pt" viewBox="0 0 647.000000 425.000000"
 preserveAspectRatio="xMidYMid meet">

<g transform="translate(0.000000,425.000000) scale(0.100000,-0.100000)"
fill="#000000" stroke="none">
<path d="M0 2125 l0 -2125 3235 0 3235 0 0 2125 0 2125 -3235 0 -3235 0 0
-2125z m3518 1720 c75 -45 95 -137 86 -396 -3 -90 -6 -423 -7 -739 -2 -560 -3
-576 -23 -610 -11 -19 -35 -45 -54 -57 -33 -23 -36 -23 -405 -23 -510 0 -474
-29 -476 384 -1 152 -3 285 -6 295 -4 17 -22 19 -206 25 -111 4 -294 10 -407
14 l-205 8 185 7 c102 4 286 10 409 14 208 7 224 9 227 27 7 48 38 45 -736 62
-157 3 -292 10 -300 15 -9 5 32 9 105 9 148 0 532 10 760 19 l170 6 0 89 0 90
-175 3 c-96 2 -334 8 -529 13 -194 6 -424 10 -510 11 -295 2 -85 16 344 23
231 4 521 9 645 12 l225 5 0 27 c0 26 -2 27 -71 33 -40 4 -238 10 -440 14
-203 4 -378 11 -389 16 -12 5 21 8 85 8 197 1 805 24 813 30 4 4 2 19 -5 33
-12 24 -16 25 -132 32 -65 3 -180 7 -255 7 -75 1 -185 4 -246 8 l-110 6 175 7
c96 5 225 8 285 8 61 0 147 3 193 7 71 5 82 8 82 25 0 10 5 27 12 37 9 15 9
25 0 46 -15 31 -16 141 -2 150 6 3 10 32 10 63 0 79 36 130 108 152 15 5 187
8 382 7 335 -2 357 -3 388 -22z m-912 -835 c17 -15 10 -28 -20 -40 -22 -8
-767 5 -1026 18 l-145 8 215 7 c448 15 857 25 908 22 29 -2 60 -9 68 -15z
m-805 -1787 c5 -5 6 -30 3 -56 l-7 -47 -36 7 c-52 10 -100 5 -135 -15 -86 -49
-88 -209 -4 -262 28 -18 44 -21 111 -17 54 4 77 2 77 -6 0 -7 3 -29 6 -49 6
-36 6 -37 -37 -48 -24 -7 -69 -10 -100 -7 -138 12 -229 114 -229 257 0 123 65
214 180 251 32 11 158 5 171 -8z m259 -130 l125 -146 3 141 3 142 49 0 50 0 0
-260 c0 -213 -2 -260 -14 -260 -7 0 -69 63 -137 139 -68 77 -127 140 -131 140
-5 1 -8 -60 -8 -134 l0 -135 -50 0 -50 0 0 260 c0 241 1 260 18 259 9 0 73
-66 142 -146z m713 122 c155 -74 192 -301 67 -422 -55 -54 -95 -68 -190 -68
-68 0 -93 5 -125 22 -83 44 -126 114 -133 215 -9 130 56 229 178 269 41 14
161 4 203 -16z m2524 7 c16 -9 19 -18 14 -54 -7 -46 -2 -44 -82 -32 -50 8 -79
-9 -79 -47 0 -27 6 -33 58 -57 116 -56 142 -86 142 -165 0 -117 -124 -179
-263 -131 -50 17 -54 26 -41 91 l6 29 51 -18 c65 -22 96 -22 125 -2 45 31 24
66 -63 103 -64 28 -103 66 -115 111 -18 66 21 148 84 176 34 16 130 13 163 -4z
m356 7 c36 -10 37 -12 37 -54 0 -24 -3 -46 -8 -49 -4 -2 -26 1 -50 7 -28 7
-51 8 -69 1 -23 -8 -28 -15 -28 -44 0 -31 4 -37 40 -52 121 -54 155 -91 155
-168 0 -120 -122 -182 -263 -134 -43 14 -47 19 -47 47 0 18 3 41 6 53 5 20 6
20 57 3 65 -23 96 -23 125 -3 45 31 24 66 -63 103 -95 41 -136 107 -115 183
27 96 113 138 223 107z m-4623 -49 l0 -50 -65 0 -65 0 0 -205 0 -205 -50 0
-50 0 0 205 0 205 -65 0 -65 0 0 50 0 50 180 0 180 0 0 -50z m340 0 l0 -50
-80 0 -80 0 0 -50 0 -50 71 0 70 0 -3 -52 -3 -53 -68 -3 -68 -3 3 -47 3 -47
83 -3 82 -3 0 -49 0 -50 -135 0 -135 0 0 255 0 255 130 0 130 0 0 -50z m1900
0 l0 -50 -80 0 -80 0 0 -50 0 -49 68 -3 67 -3 0 -50 0 -50 -68 -3 -68 -3 3
-47 3 -47 83 -3 82 -3 0 -49 0 -50 -135 0 -135 0 0 255 0 255 130 0 130 0 0
-50z m235 -15 c20 -36 41 -62 46 -59 5 3 23 32 39 65 l30 59 60 0 c33 0 60 -2
60 -4 0 -2 -29 -54 -65 -115 -36 -60 -65 -114 -65 -120 0 -5 34 -66 75 -134
41 -69 75 -128 75 -131 0 -3 -27 -6 -59 -6 l-59 0 -47 86 c-53 97 -44 99 -109
-18 l-38 -68 -59 0 c-32 0 -59 3 -59 8 0 4 34 63 75 132 41 69 75 128 75 132
0 3 -29 56 -65 117 -36 60 -65 112 -65 115 0 3 27 6 60 6 l59 0 36 -65z m603
45 c37 -23 71 -88 72 -135 0 -17 -10 -51 -22 -75 -31 -59 -73 -80 -160 -80
l-68 0 0 -100 0 -100 -50 0 -50 0 0 255 0 255 123 0 c105 0 127 -3 155 -20z
m420 6 c52 -27 75 -62 80 -121 5 -67 -10 -108 -52 -137 -17 -12 -33 -23 -35
-24 -2 -2 22 -50 53 -108 l57 -106 -58 0 -59 0 -49 100 c-45 91 -52 100 -77
100 l-28 0 0 -100 0 -100 -50 0 -50 0 0 255 0 255 120 0 c85 0 129 -4 148 -14z
m422 -36 l0 -50 -75 0 -75 0 0 -50 0 -50 65 0 65 0 0 -55 0 -55 -65 0 -65 0 0
-50 0 -50 80 0 80 0 0 -50 0 -50 -130 0 -130 0 0 255 0 255 125 0 125 0 0 -50z"/>
<path d="M2740 3843 c-8 -3 -26 -15 -38 -27 -48 -43 -52 -64 -52 -252 l0 -177
198 5 c203 5 256 -1 250 -30 -5 -26 -42 -30 -250 -24 l-198 5 0 -36 0 -37 69
0 c82 0 101 -6 101 -30 0 -24 -19 -30 -100 -30 l-68 0 -1 -155 -1 -155 24 0
c37 0 56 -10 56 -31 0 -12 -9 -21 -27 -25 -51 -11 -54 -13 -51 -41 l3 -28 116
4 c119 3 159 -5 159 -35 0 -27 -49 -35 -167 -28 l-113 7 0 -127 c0 -118 1
-126 18 -117 35 21 426 326 429 336 2 6 -53 42 -122 80 -68 39 -125 73 -125
77 0 3 110 95 245 203 l245 197 93 -53 c50 -29 99 -57 109 -64 14 -9 -12 -33
-172 -160 -104 -83 -189 -152 -189 -155 0 -3 58 -38 130 -79 71 -40 127 -76
124 -80 -4 -3 -181 -78 -393 -167 l-387 -161 -3 -159 c-3 -185 6 -210 81 -244
39 -18 68 -20 382 -20 334 0 342 0 385 23 85 42 80 -15 80 890 0 865 3 823
-55 877 l-27 25 -371 2 c-205 1 -379 -1 -387 -4z m420 -43 c0 -5 -20 -10 -45
-10 -25 0 -45 5 -45 10 0 6 20 10 45 10 25 0 45 -4 45 -10z m60 0 c0 -5 -4
-10 -10 -10 -5 0 -10 5 -10 10 0 6 5 10 10 10 6 0 10 -4 10 -10z"/>
<path d="M2585 1120 c-74 -30 -108 -146 -65 -218 59 -97 216 -97 266 -1 37 72
13 171 -49 209 -34 21 -114 26 -152 10z"/>
<path d="M3930 1075 l0 -55 54 0 c61 0 86 16 86 55 0 39 -25 55 -86 55 l-54 0
0 -55z"/>
<path d="M4360 1075 l0 -55 59 0 c65 0 84 13 84 57 0 37 -28 53 -90 53 l-53 0
0 -55z"/>
</g>
</svg>
